<svg xmlns="http://www.w3.org/2000/svg" width="48" height="48" fill="#fff"><path d="M46.137 48.037h-26.2c-.5 0-1-.2-1.3-.6-.4-.4-.6-.8-.6-1.3 0-.3.1-.6.2-.8l3.9-6.6c.2-.3.5-.4.8-.4h20.1c.3 0 .6.2.8.4l3.9 6.6v.1c.2.5.3 1 .1 1.4-.2.5-.5.9-.9 1.1-.2 0-.5.1-.8.1zm-22.6-8.1l-3.6 6.1 26.3.1.9-.6-.8.5-3.8-6.1h-19z"/><path d="M43.137 39.937h-20.1c-.5 0-.9-.4-.9-.9v-13c0-1 .8-1.9 1.9-1.9h18.1c1 0 1.9.8 1.9 1.9v13.1c-.1.4-.4.8-.9.8zm-19.2-1.8h18.3v-12.1l-18.2-.1c-.1 0-.1 0-.1.1v12.1zm10.1 5.8h-2c-.5 0-.9-.4-.9-.9s.4-.9.9-.9h2c.5 0 .9.4.9.9s-.4.9-.9.9zm-17.1-8h-16c-.2 0-.5-.1-.6-.3s-.3-.4-.3-.6c0-1.4.2-2.9.6-4.3 1.1-3.8 3.7-7 7.2-8.9s7.6-2.3 11.4-1.2c.5.1.7.6.6 1.1s-.6.7-1.1.6c-3.4-1-6.9-.6-10 1-3.1 1.7-5.4 4.5-6.4 7.8-.3.9-.4 1.9-.5 2.8h15.1c.5 0 .9.4.9.9 0 .7-.4 1.1-.9 1.1zm.9-25.6c-4.1 0-8-1.7-10.9-4.6a1.05 1.05 0 0 1 0-1.3 1.05 1.05 0 0 1 1.3 0c2.5 2.6 6 4.1 9.6 4.1 1.8 0 3.6-.4 5.2-1.1.4-.2 1 0 1.2.5a.88.88 0 0 1-.5 1.2 15.18 15.18 0 0 1-5.9 1.2z"/><path d="M14.937 18.837a9.39 9.39 0 0 1-9.4-9.4 9.39 9.39 0 0 1 9.4-9.4 9.39 9.39 0 0 1 9.4 9.4c.1 5.2-4.2 9.4-9.4 9.4zm0-17.1a7.6 7.6 0 1 0 0 15.2 7.6 7.6 0 0 0 7.6-7.6c.1-4.1-3.4-7.6-7.6-7.6z"/></svg>