<svg xmlns="http://www.w3.org/2000/svg" width="47.1" height="48" fill="#fff"><path d="M33.025 40.5c-.3 0-.7-.1-1-.2l-13.3-4.7c-.4-.1-.7-.5-.7-.9s.2-.8.6-.9l13.3-5.3a2.8 2.8 0 0 1 2.2 0l12 4.8a1.96 1.96 0 0 1 .9.9c.1.4.1.8-.1 1.1-.2.4-.5.6-.9.8l-12.1 4.3c-.3 0-.6.1-.9.1zm-11.2-5.9l10.8 3.8c.2.1.4.1.7 0l10.8-3.8-10.8-4.3c-.2-.1-.5-.1-.7 0l-10.8 4.3zm23.6.5zm-13.2-5.7z"/><path d="M19.025 43a.94.94 0 0 1-1-1v-7.3a.94.94 0 0 1 1-1 .94.94 0 0 1 1 1V42a1.08 1.08 0 0 1-1 1zm14 5c-.3 0-.6-.1-.9-.2l-6.5-2.4c-1-.4-1.6-1.3-1.6-2.3v-6.3a.94.94 0 0 1 1-1 .94.94 0 0 1 1 1v6.3a.55.55 0 0 0 .3.5l6.5 2.4c.1.1.3.1.4 0l6.5-2.4c.2-.1.3-.2.3-.5v-6.3a.94.94 0 0 1 1-1 .94.94 0 0 1 1 1v6.3c0 1-.6 1.9-1.6 2.3l-6.5 2.4c-.3.1-.6.2-.9.2zm-20-12h-12c-.3 0-.5-.1-.7-.3s-.3-.4-.3-.7c0-4 1.6-7.8 4.4-10.6s6.6-4.4 10.6-4.4c4.4 0 8.6 2 11.5 5.4a.97.97 0 0 1-.1 1.4.97.97 0 0 1-1.4-.1c-2.5-2.9-6.1-4.6-10-4.6-3.5 0-6.7 1.4-9.2 3.8-2.2 2.1-3.6 5-3.8 8.1h11a.94.94 0 0 1 1 1c0 .6-.5 1-1 1zm4.3-25.5c-4.1 0-8.1-1.7-10.9-4.6-.4-.4-.4-1 0-1.4s1-.4 1.4 0c2.5 2.5 5.9 4 9.4 4 1.8 0 3.5-.4 5.2-1.1.5-.2 1.1 0 1.3.5s0 1.1-.5 1.3c-1.9.9-3.9 1.3-5.9 1.3z"/><path d="M14.425 19c-5.2 0-9.5-4.3-9.5-9.5s4.3-9.5 9.5-9.5 9.5 4.3 9.5 9.5-4.2 9.5-9.5 9.5zm0-17c-4.1 0-7.5 3.4-7.5 7.5s3.4 7.5 7.5 7.5 7.5-3.4 7.5-7.5-3.3-7.5-7.5-7.5z"/></svg>