<svg xmlns="http://www.w3.org/2000/svg" width="48" height="48" fill="#fff"><path d="M47 36H23a.94.94 0 0 1-1-1 .94.94 0 0 1 1-1h24a.94.94 0 0 1 1 1 .94.94 0 0 1-1 1zm-6 6h-6a.94.94 0 0 1-1-1 .94.94 0 0 1 1-1h6a.94.94 0 0 1 1 1 .94.94 0 0 1-1 1z"/><path d="M45 48H25c-1.7 0-3-1.3-3-3V31c0-1.7 1.3-3 3-3h20c1.7 0 3 1.3 3 3v14c0 1.7-1.3 3-3 3zM25 30a.94.94 0 0 0-1 1v14a.94.94 0 0 0 1 1h20a.94.94 0 0 0 1-1V31a.94.94 0 0 0-1-1H25zm-8 6H1a.94.94 0 0 1-1-1 14.98 14.98 0 0 1 15-15c2.6 0 5.2.7 7.5 2 .5.3.6.9.4 1.4-.3.5-.9.6-1.4.4-2-1.1-4.2-1.7-6.5-1.7C8.2 22 2.6 27.3 2 34h15a.94.94 0 0 1 1 1 .94.94 0 0 1-1 1zm.8-25.5c-4.1 0-8.1-1.7-10.9-4.6-.4-.4-.4-1 0-1.4s1-.4 1.4 0c2.5 2.5 5.9 4 9.4 4 1.8 0 3.5-.4 5.2-1.1.5-.2 1.1 0 1.3.5s0 1.1-.5 1.3c-1.8.9-3.8 1.3-5.9 1.3z"/><path d="M15 19c-5.2 0-9.5-4.3-9.5-9.5S9.8 0 15 0s9.5 4.3 9.5 9.5S20.2 19 15 19zm0-17c-4.1 0-7.5 3.4-7.5 7.5S10.9 17 15 17s7.5-3.4 7.5-7.5S19.1 2 15 2z"/></svg>