<svg xmlns="http://www.w3.org/2000/svg" width="48.125" height="48" viewBox="6.875 6 48.125 48" fill="#fff"><path d="M25.99 37.055c-.086 0-.172-.012-.257-.035l-17-4.727c-.97-.276-1.656-1.133-1.716-2.132s.518-1.93 1.44-2.32L53.675 9.16a.96.96 0 0 1 1.02 1.591L26.643 36.798c-.18.167-.415.257-.654.257zm23.497-24.088l-40.3 16.646c-.166.07-.274.245-.263.433a.44.44 0 0 0 .32.398l16.486 4.58 23.757-22.058z"/><path d="M44.564 49.07a2.75 2.75 0 0 1-1.523-.458l-17.584-11.72a.96.96 0 0 1-.424-.722c-.023-.292.088-.58.304-.78L53.39 9.342c.31-.285.766-.337 1.127-.132a.96.96 0 0 1 .467 1.033l-7.717 36.64c-.19.896-.81 1.636-1.654 1.983-.337.137-.688.206-1.048.206zm-17.03-13.1l16.57 11.043c.223.146.523.177.78.074a.84.84 0 0 0 .504-.604l7.092-33.678L27.534 35.97z"/><path d="M27.027 51.075a1.97 1.97 0 0 1-.52-.069 2 2 0 0 1-1.478-1.926V36.095a.96.96 0 1 1 1.92 0v12.983c0 .034.024.065.06.074l.918.448-.83-.483 5.133-8.797a.96.96 0 1 1 1.659.968l-5.133 8.797c-.365.624-1.03 1-1.73 1z"/></svg>